<?xml version="1.0" encoding="UTF-8" standalone="no"?>
<svg
   viewBox="0 0 180 177.97"
   version="1.1"
   id="svg132"
   sodipodi:docname="lvwwg-logo.svg"
   inkscape:version="1.1 (c68e22c387, 2021-05-23)"
   width="180"
   height="177.97"
   xmlns:inkscape="http://www.inkscape.org/namespaces/inkscape"
   xmlns:sodipodi="http://sodipodi.sourceforge.net/DTD/sodipodi-0.dtd"
   xmlns="http://www.w3.org/2000/svg"
   xmlns:svg="http://www.w3.org/2000/svg">
  <defs
     id="defs136" />
  <sodipodi:namedview
     id="namedview134"
     pagecolor="#ffffff"
     bordercolor="#666666"
     borderopacity="1.0"
     inkscape:pageshadow="2"
     inkscape:pageopacity="0.0"
     inkscape:pagecheckerboard="0"
     showgrid="false"
     inkscape:zoom="1.5280832"
     inkscape:cx="174.40149"
     inkscape:cy="88.67318"
     inkscape:window-width="2560"
     inkscape:window-height="1377"
     inkscape:window-x="-8"
     inkscape:window-y="-8"
     inkscape:window-maximized="1"
     inkscape:current-layer="svg132"
     width="489.57999px" />
  <rect
     style="fill:#ffffff;fill-rule:evenodd;stroke:#000000;stroke-width:3;stroke-miterlimit:4;stroke-dasharray:none;stroke-opacity:1"
     id="rect160"
     width="112.5"
     height="112.5"
     x="69.282532"
     y="-54.92334"
     transform="rotate(45)" />
  <g
     transform="matrix(0.2483455,0.02871435,-0.02871435,0.2483455,27.58641,48.092198)"
     fill-rule="evenodd"
     id="g130">
    <g
       fill="#eff0f0"
       id="g52">
      <path
         d="m 165.91,10.842 c -0.76512,2.7 1.7793,2.06 1.4322,4.336 4.2581,-1.881 4.5278,-2.179 8.5976,0 -0.64717,-1.274 -1.6028,-2.238 -2.8665,-2.891 2.5514,-2.726 6.0006,-4.546 7.8798,-7.951 -6.3762,-3.79 -9.0148,5.488 -15.043,6.506 z"
         id="path2" />
      <path
         d="m 164.47,13.733 c 4.8994,10.249 14.806,25.518 23.642,31.802 C 180.3195,34.844 172.77,23.91 164.47,13.733 Z"
         id="path4" />
      <path
         d="m 193.85,26.743 c 8.0139,5.888 14.017,13.805 22.208,19.515 C 209.9126,38.484 203.61,30.87 193.85,26.743 Z"
         id="path6" />
      <path
         d="m 226.08,44.089 c 11.636,4.402 20.426,11.676 28.656,19.515 2.0369,-1.755 -5.066,-6.32 -7.1641,-8.673 -2.1847,-7.674 -8.009,-11.676 -13.612,-15.901 h -1.4324 c -2.9605,1.389 -4.6971,4.385 -6.4476,5.059 z"
         id="path8" />
      <path
         d="m 188.12,46.98 c 11.167,13.503 25.266,24.201 37.97,36.139 12.59,11.833 25.494,23.539 39.402,33.971 0.76028,-2.198 -4.1423,-6.007 -7.1644,-8.674 -22.231,-19.618 -47.351,-41.291 -68.774,-62.158 -0.83362,-0.118 -1.2748,0.159 -1.4324,0.722 z"
         id="path10" />
      <path
         d="m 279.81,114.92 c -9.5769,-20.213 -31.204,-28.267 -45.134,-44.089 2.5009,-8.487 4.6141,-13.591 -1.4322,-19.515 -4.5408,-4.448 -18.345,-4.902 -19.343,0.723 -0.29927,1.685 12.841,16.839 14.328,18.792 10.648,13.982 20.25,21.556 32.238,32.525 5.4179,4.957 10.785,14.277 19.343,11.564 z"
         id="path12" />
      <path
         d="m 211.76,54.208 c 8.2159,10.998 16.695,25.542 26.506,32.525 C 229.6297,75.69 222.513,63.115 211.76,54.208 Z"
         id="path14" />
      <path
         d="m 243.99,58.544 c -10.611,5.101 -0.0664,13.418 6.4479,18.792 12.421,10.248 26.91,23.657 31.522,38.307 3.922,-0.102 6.8143,0.834 10.03,1.445 -8.0326,-27.553 -31.938,-39.09 -47.999,-58.544 z"
         id="path16" />
      <path
         d="m 238.26,88.178 c 10.494,9.892 19.993,20.786 32.955,28.188 -10.712,-9.671 -20.114,-20.664 -32.955,-28.188 z"
         id="path18" />
      <path
         d="m 423.1,98.297 c -2.4847,-0.57999 -2.7534,1.076 -5.0154,0.723 -0.30115,3.709 5.6965,2.267 5.0154,-0.723 z"
         id="path20" />
      <path
         d="m 296.29,98.297 c -0.79788,2.425 -4.1283,3.752 -1.4324,5.782 2.2282,-0.161 1.2103,-3.597 1.4324,-5.782 z"
         id="path22" />
      <path
         d="m 153.73,99.02 c -1.7881,-1.521 -2.694,3.996 -3.5822,5.782 1.2858,0.092 1.5106,-0.885 2.8665,-0.723 -2.3749,-0.877 0.17168,-3.044 0.71568,-5.059 z"
         id="path24" />
      <path
         d="m 423.81,101.19 c 0.94351,1.369 5.733,0.532 5.7309,-1.445 -2.0606,-1.867 -4.2264,0.54301 -5.7309,1.445 z"
         id="path26" />
      <path
         d="m 239.7,102.63 c -4.3809,3.725 -5.7043,21.131 -0.71651,25.298 -1.1786,-6.163 -3.8052,-19.487 2.1487,-22.406 0.52252,-1.972 -1.4222,-1.455 -1.4322,-2.892 z"
         id="path28" />
      <path
         d="m 233.97,104.08 c -2.4689,-0.047 -2.5592,6.043 -2.1487,6.505 2.3649,-0.613 0.35461,-4.079 2.1487,-6.505 z"
         id="path30" />
      <path
         d="m 148.71,108.42 c -0.57974,-0.137 -0.71462,-0.725 -1.4322,-0.723 -0.26381,-1.229 0.55798,-1.363 1.4322,-1.445 -0.72563,-4.401 -5.3228,4.192 -0.71677,2.892 -0.53998,2.311 -5.2997,-0.758 -5.0152,0.723 0.54993,1.768 1.9824,1.911 4.2987,1.445 0.20015,1.647 -0.17354,2.717 -1.4322,2.891 3.4481,1.093 2.9775,-6.871 5.0144,-7.95 -0.64127,-1.953 -2.9081,0.334 -2.1489,2.167 z"
         id="path32" />
      <path
         d="m 230.38,106.25 c -2.2569,-0.349 -0.53731,3.313 -2.15,3.614 -0.13193,0.614 0.27966,0.682 0.71675,0.723 h 1.4333 c -0.64343,-2.117 -0.64343,-2.221 0,-4.337 z"
         id="path34" />
      <path
         d="m 235.4,112.03 c -2.9428,2.216 -1.2578,11.714 -0.71758,15.179 1.2302,-3.069 -1.3191,-11.157 0.71758,-15.179 z"
         id="path36" />
      <path
         d="m 232.53,112.03 c -2.2349,-1.037 -2.2349,5.373 0,4.337 -0.0642,-2.7 -0.8027,-2.061 0,-4.337 z"
         id="path38" />
      <path
         d="m 251.88,112.75 c -3.0578,0.288 -0.68291,6.057 -1.4322,8.674 2.0922,-2.834 -0.0656,-5.466 1.4322,-8.674 z"
         id="path40" />
      <path
         d="m 253.31,114.92 c -1.6157,0.539 -0.28049,4.055 -0.71675,5.782 3.8014,0.103 1.3628,-4.186 0.71675,-5.782 z"
         id="path42" />
      <path
         d="m 231.82,117.09 c -1.3322,3.529 -1.4819,12.082 2.1487,13.01 -2.1707,-4.89 -1.2111,-9.448 -2.1487,-13.01 z"
         id="path44" />
      <path
         d="m 241.13,120.7 c -0.0545,2.737 7.8255,1.219 7.8811,1.446 0.0524,-2.245 -5.615,0.208 -7.8811,-1.446 z"
         id="path46" />
      <path
         d="m 226.08,121.43 c -12,-0.06 -25.957,4.166 -40.119,4.336 13.489,1.56 27.835,-2.274 40.119,-4.336 z"
         id="path48" />
      <path
         d="m 245.43,124.32 c -0.53328,-1.63 -4.0182,-0.282 -5.7311,-0.723 1.0367,1.212 4.264,2.117 5.7311,0.723 z"
         id="path50" />
    </g>
    <path
       d="m 139.4,129.38 c -2.1618,-0.205 -2.0321,5.594 -1.4324,5.782 1.9458,-0.451 1.6079,-4.213 1.4324,-5.782 z"
       id="path54" />
    <g
       fill="#eff0f0"
       id="g92">
      <path
         d="m 210.32,132.27 c -0.19745,1.268 2.017,3.606 0,4.337 -2.1718,0.023 -1.7852,-2.536 -2.149,-4.337 -3.0935,0.25301 -4.7656,1.939 -5.0154,5.06 2.9022,1.692 8.6946,2.166 11.462,0 0.22003,-3.353 -1.2557,-4.996 -4.2976,-5.06 z"
         id="path56" />
      <path
         d="m 216.05,138.05 c 1.249,-0.668 3.846,0.025 3.5822,-2.168 -1.9794,-0.80299 -4.0171,-1.127 -3.5822,2.168 z"
         id="path58" />
      <path
         d="m 400.17,145.28 c -3.3721,1.675 -11.326,0.034 -13.611,0.72301 2.7268,0.80299 12.048,2.05 13.611,-0.72301 z"
         id="path60" />
      <path
         d="m 378.68,145.28 c -0.4371,2.851 3.933,0.85001 5.7309,1.445 -1.011,-2.051 -2.3152,-0.93301 -5.7309,-1.445 z"
         id="path62" />
      <path
         d="m 435.99,153.95 c -3.7863,-0.276 0.3259,2.929 -3.5822,2.168 1.1904,2.331 4.0005,0.939 3.5822,-2.168 z"
         id="path64" />
      <path
         d="m 451.75,161.9 c -1.7078,-1.232 -20.406,-2.239 -7.8798,-0.72301 2.2728,0.276 3.6029,1.197 7.8798,0.72301 z"
         id="path66" />
      <path
         d="m 171.64,14.456 c -2.2389,1.167 1.469,2.289 1.4324,3.614 -0.64825,1.959 -2.6365,-0.609 -2.8657,-1.446 12.168,25.067 37.399,43.218 57.312,62.881 -3.4385,-7.856 -12.216,-16.584 -17.91,-24.574 -0.12678,-2.538 2.4195,-2.377 2.8665,-4.336 -6.1266,-8.999 -18.407,-11.786 -21.493,-23.852 9.5016,-4.748 16.934,10.018 23.642,15.178 2.9428,-1.127 4.7814,-3.367 6.4476,-5.782 -11.144,-9.717 -22.358,-19.364 -35.104,-27.465 -4.4991,2.081 -10.81,13.747 -14.328,5.782 z"
         id="path68" />
      <path
         d="m 155.16,28.911 c 6.5973,2.499 14.809,3.369 20.058,7.228 -2.2857,-3.965 -12.174,-6.506 -20.058,-7.228 z"
         id="path70" />
      <path
         d="m 193.85,30.356 c -0.64825,-0.098 4.9005,5.501 7.1644,7.228 0.36159,-2.313 -4.8322,-5.23 -7.1644,-7.228 z"
         id="path72" />
      <path
         d="m 218.92,45.535 c 11.373,-1.375 15.421,7.082 24.358,10.119 -7.4102,-3.892 -12.685,-12.829 -24.358,-10.119 z"
         id="path74" />
      <path
         d="m 250.44,54.208 c -0.13298,3.519 7.2297,5.707 8.5966,10.119 -5.2742,5.31 -8.6403,-6.158 -14.329,-7.228 16.099,20.137 41.373,31.018 48.715,59.99 18.625,5.302 33.597,14.289 50.864,20.96 -3.1776,-6.628 -8.8026,-12.719 -14.327,-18.792 -4.9639,-5.455 -10.479,-13.493 -16.477,-16.624 -5.4248,-2.83 -12.536,-3.477 -17.91,-6.505 -17.254,-9.718 -27.655,-29.732 -45.132,-41.92 z m 50.864,52.04 c 4.0609,1.329 10.675,5.725 6.4476,10.842 -8.667,-3.303 -13.189,-10.787 -17.194,-18.792 5.3781,-3.849 10.959,1.666 10.747,7.95 z"
         id="path76" />
      <path
         d="m 236.83,67.941 c 4.0716,6.733 11.578,10.002 17.91,14.455 -2.7781,-1.858 -12.882,-12.458 -17.91,-14.455 z"
         id="path78" />
      <path
         d="m 236.83,71.555 c 7.2178,7.414 16.555,12.69 25.074,18.792 C 256.4039,84.088 244.67,77.861 236.83,71.555 Z"
         id="path80" />
      <path
         d="m 153.73,91.792 c 3.4256,-4.253 5.9364,-9.43 8.5966,-14.455 -3.471,4.207 -6.6279,8.731 -8.5966,14.455 z"
         id="path82" />
      <path
         d="m 269.07,97.575 c -1.6731,-2.852 -7.4787,-6.288 -5.0146,-3.614 0.60767,0.66 2.0678,2.34 5.0146,3.614 z"
         id="path84" />
      <path
         d="m 153.73,92.515 c -2.69,1.622 -2.7118,5.938 -5.0154,7.95 2.0965,0.645 3.8836,-5.219 5.0154,-7.95 z"
         id="path86" />
      <path
         d="m 296.29,93.96 c 30.314,1.117 55.078,18.136 79.521,28.911 C 354.199,111.942 332.197,94.169 296.29,93.96 Z"
         id="path88" />
      <path
         d="m 403.75,110.58 c 1.5364,-1.338 3.817,0.956 6.4476,0.723 -0.49567,2.266 -1.9109,0.942 -3.5822,0.723 0.44302,1.722 3.1223,1.187 2.149,4.337 1.1122,-1.77 2.4998,-3.261 2.8654,-5.782 -2.254,0.346 -2.8009,-1.029 -4.2987,-1.445 1.0743,-3.123 3.5494,1.28 5.7311,1.445 -0.82074,-2.273 1.1248,-1.757 1.4332,-2.892 2.1549,-1.152 -2.4573,0.021 -2.1489,1.446 -0.8476,-1.072 -2.7061,-1.125 -3.5822,-2.169 0.6066,-2.118 2.3064,0.433 3.5822,0 -0.1843,-1.964 -3.2265,-0.992 -5.0154,-2.891 2.3056,3.839 -2.2827,4.205 -3.5811,6.505 z"
         id="path90" />
    </g>
    <path
       d="m 179.52,0 c -5.0788,2.023 -7.6461,2.337 -12.896,3.614 -2.2529,4.183 -2.2537,6.72 -5.7309,10.119 1.4016,4.85 5.3633,7.117 7.8798,10.841 -8.0671,-1.778 -21.875,-5.846 -27.939,0.723 5.2008,14.418 29.68,12.706 24.357,34.693 -2.1299,8.797 -9.9138,16.882 -15.761,26.743 -7.4677,12.592 -12.202,23.948 -15.044,39.752 -20.501,0.001 -44.782,1.963 -70.208,3.614 -8.9999,0.58501 -18.467,-1.101 -25.074,1.445 -4.1848,1.613 -5.1422,5.876 -8.5975,8.674 -9.1477,7.405 -23.244,10.874 -29.373,19.515 0.37866,4.437 -0.81871,10.463 0.71663,13.732 142.39,0.01 293.92,5.181 427.69,3.614 11.429,-0.13399 22.478,2.063 31.522,0 10.591,-2.416 27.081,-13.454 25.074,-27.466 -2.3203,-16.2 -28.386,-13.418 -42.985,-15.9 3.9478,-7.613 8.0563,-18.777 2.1489,-28.188 -12.698,-20.232 -59.33,-8.836 -47.282,20.96 -37.713,-7.099 -58.929,-38.233 -103.16,-33.97 -17.25,-11.268 -26.834,-30.267 -45.134,-40.476 -6.3576,-6.862 -12.234,-17.979 -25.074,-15.901 -14.224,-12.87 -30.073,-24.107 -45.132,-36.138 z m 227.82,104.08 c 1.7889,1.898 4.8309,0.927 5.0154,2.891 -1.2758,0.433 -2.9748,-2.118 -3.5822,0 0.875,1.044 2.7335,1.097 3.5822,2.169 -0.30734,-1.426 4.3046,-2.599 2.1487,-1.446 -0.30814,1.135 -2.2529,0.618 -1.4333,2.892 -2.1814,-0.165 -4.6565,-4.568 -5.7309,-1.445 1.4975,0.416 2.0447,1.791 4.2987,1.445 -0.36566,2.521 -1.7535,4.013 -2.8654,5.782 0.97226,-3.15 -1.707,-2.615 -2.149,-4.337 1.671,0.22 3.0866,1.543 3.5822,-0.723 -2.6306,0.233 -4.9115,-2.061 -6.4476,-0.723 1.2973,-2.301 5.8856,-2.667 3.5811,-6.505 z M 180.96,4.336 c -1.8792,3.404 -5.3287,5.225 -7.8798,7.951 1.2627,0.653 2.2183,1.617 2.8665,2.891 -4.069,-2.179 -4.3395,-1.881 -8.5976,0 0.34683,-2.276 -2.1984,-1.636 -1.4322,-4.336 6.0272,-1.018 8.6659,-10.296 15.043,-6.506 z m 5.0154,4.337 c 12.746,8.102 23.96,17.749 35.104,27.465 -1.6662,2.416 -3.5048,4.655 -6.4476,5.782 -6.7074,-5.161 -14.14,-19.926 -23.642,-15.178 3.0846,12.066 15.366,14.853 21.493,23.852 -0.44598,1.959 -2.9933,1.799 -2.8665,4.336 5.6935,7.99 14.472,16.718 17.91,24.574 -19.912,-19.664 -45.144,-37.814 -57.312,-62.881 0.22809,0.837 2.2164,3.405 2.8657,1.446 0.0365,-1.325 -3.6714,-2.447 -1.4324,-3.614 3.5177,7.966 9.8286,-3.7 14.328,-5.782 z m 2.1497,36.862 c -8.8354,-6.284 -18.741,-21.553 -23.642,-31.802 8.3,10.177 15.849,21.111 23.642,31.802 z m 27.939,0.722 c -8.1912,-5.71 -14.194,-13.627 -22.208,-19.515 9.7593,4.128 16.062,11.742 22.208,19.515 z m -40.835,-10.118 c -5.2492,-3.859 -13.461,-4.729 -20.058,-7.228 7.8849,0.722 17.773,3.263 20.058,7.228 z m 25.791,1.445 c -2.2628,-1.727 -7.8124,-7.326 -7.1644,-7.228 2.3332,1.998 7.527,4.915 7.1644,7.228 z m 31.522,1.446 h 1.4324 c 5.603,4.225 11.427,8.227 13.612,15.901 2.0982,2.354 9.201,6.918 7.1641,8.673 -8.2299,-7.839 -17.02,-15.112 -28.656,-19.515 1.7506,-0.674 3.4871,-3.67 6.4476,-5.059 z m 10.747,16.623 c -8.9375,-3.037 -12.986,-11.494 -24.358,-10.119 11.672,-2.709 16.947,6.228 24.358,10.119 z m -53.73,-9.396 c 21.424,20.868 46.543,42.541 68.774,62.158 3.0221,2.667 7.9236,6.476 7.1644,8.674 -13.908,-10.432 -26.812,-22.138 -39.402,-33.971 -12.702,-11.938 -26.803,-22.636 -37.97,-36.139 0.1577,-0.562 0.59883,-0.839 1.4324,-0.722 z m 70.923,57.1 c -11.989,-10.97 -21.59,-18.543 -32.238,-32.525 -1.4867,-1.953 -14.627,-17.107 -14.328,-18.792 0.99831,-5.625 14.802,-5.171 19.343,-0.723 6.0473,5.924 3.9341,11.028 1.4322,19.515 13.929,15.822 35.558,23.876 45.134,44.089 -8.5579,2.712 -13.925,-6.608 -19.343,-11.564 z m 35.104,-7.229 c 5.3741,3.028 12.485,3.675 17.91,6.505 5.9984,3.131 11.514,11.169 16.477,16.624 5.5248,6.073 11.15,12.164 14.327,18.792 -17.266,-6.671 -32.239,-15.658 -50.864,-20.96 -7.342,-28.972 -32.616,-39.853 -48.715,-59.99 5.6884,1.069 9.0535,12.537 14.329,7.228 -1.3669,-4.412 -8.7295,-6.6 -8.5966,-10.119 17.477,12.188 27.879,32.202 45.132,41.92 z m -57.312,-9.395 c -9.8109,-6.983 -18.29,-21.527 -26.506,-32.525 10.753,8.907 17.87,21.482 26.506,32.525 z m 53.73,30.356 c -3.2154,-0.611 -6.1086,-1.547 -10.03,-1.445 -4.6119,-14.65 -19.1,-28.06 -31.522,-38.307 -6.514,-5.375 -17.058,-13.692 -6.4476,-18.792 16.062,19.453 39.968,30.99 47.999,58.544 z m -37.253,-34.693 c -6.3316,-4.453 -13.837,-7.722 -17.91,-14.455 5.0272,1.997 15.132,12.597 17.91,14.455 z m -47.282,-14.455 c 6.0374,7.883 16.606,11.193 19.343,22.406 3.8129,3.218 10.592,7.037 11.462,10.841 -2.6188,-0.49 -5.2097,-1.008 -8.5965,-0.72301 -2.8963,5.088 -3.0976,13.195 -3.5822,18.792 -13.108,2.195 -26.666,3.935 -40.835,5.06 -7.3178,-24.535 10.789,-41.901 22.209,-56.376 z m 54.447,22.406 c -8.5192,-6.102 -17.856,-11.378 -25.074,-18.792 7.8403,6.306 19.574,12.533 25.074,18.792 z m -99.58,-13.01 c -2.6602,5.025 -5.171,10.202 -8.5966,14.455 1.9687,-5.724 5.1256,-10.248 8.5966,-14.455 z m 108.89,39.03 c -12.962,-7.402 -22.46,-18.297 -32.955,-28.188 12.841,7.523 22.243,18.516 32.955,28.188 z M 264.062,93.96 c -2.4641,-2.674 3.3412,0.763 5.0143,3.614 -2.9457,-1.273 -4.4059,-2.953 -5.0143,-3.614 z m -115.34,6.505 c 2.3026,-2.013 2.3254,-6.328 5.0154,-7.95 -1.1329,2.731 -2.92,8.595 -5.0154,7.95 z m 227.1,22.407 c -24.443,-10.775 -49.206,-27.794 -79.521,-28.911 35.907,0.208 57.909,17.981 79.521,28.911 z M 418.089,99.02 c 2.261,0.354 2.5296,-1.303 5.0154,-0.723 0.68103,2.99 -5.3166,4.432 -5.0154,0.723 z m -265.07,5.06 c -1.3548,-0.162 -1.5807,0.814 -2.8665,0.723 0.88815,-1.786 1.7951,-7.304 3.5822,-5.782 -0.54401,2.014 -3.0906,4.181 -0.71568,5.059 z m 276.53,-4.337 c 0.002,1.978 -4.7882,2.814 -5.7309,1.445 1.5044,-0.902 3.6703,-3.312 5.7309,-1.445 z m -188.41,5.782 c -5.9538,2.919 -3.3272,16.243 -2.1487,22.406 -4.9878,-4.167 -3.6646,-21.573 0.71651,-25.298 0.01,1.437 1.9547,0.92 1.4322,2.892 z m -9.312,5.059 c -0.41051,-0.462 -0.32024,-6.552 2.1487,-6.505 -1.794,2.427 0.21626,5.893 -2.1487,6.505 z m -80.954,-4.336 c -2.0369,1.079 -1.5652,9.043 -5.0144,7.95 1.2597,-0.174 1.6323,-1.243 1.4322,-2.891 -2.3163,0.466 -3.7488,0.322 -4.2987,-1.445 -0.2845,-1.48 4.4752,1.588 5.0152,-0.723 -4.606,1.301 -0.01,-7.293 0.71677,-2.892 -0.87419,0.082 -1.696,0.216 -1.4322,1.445 0.71864,-0.002 0.85243,0.586 1.4322,0.723 -0.7592,-1.832 1.5077,-4.119 2.1489,-2.167 z m 79.521,4.336 h -1.4333 c -0.4363,-0.041 -0.84758,-0.108 -0.71675,-0.723 1.6127,-0.301 -0.10692,-3.963 2.15,-3.614 -0.64343,2.117 -0.64343,2.221 0,4.337 z m 8.5965,8.673 c 0.55692,-0.162 1.4134,-0.02 1.4322,-0.72301 -0.98512,0.031 -1.5729,-0.34 -2.1489,-0.723 1.6455,-4.036 -0.67886,-9.213 2.8654,-10.119 -1.7554,4.931 1.1004,12.724 -2.1487,11.565 z m 174.09,-3.613 c -0.84329,-0.113 -2.0329,0.124 -2.1487,-0.724 2.6959,-0.17 1.6017,-4.165 4.2976,-4.336 v 2.168 c -3.2015,0.049 -0.9129,1.653 -2.149,2.892 z m -178.38,11.564 c -0.54027,-3.465 -2.2252,-12.963 0.71758,-15.179 -2.0367,4.023 0.51257,12.111 -0.71758,15.179 z m -2.149,-10.841 c -2.2349,1.036 -2.2349,-5.374 0,-4.337 -0.8027,2.276 -0.0642,1.637 0,4.337 z m -1.4322,15.177 c -3.6338,-3.663 -4.9203,-14.828 -1.4322,-19.515 -1.2777,5.843 0.54616,15.176 1.4322,19.515 z m 19.343,-10.118 c 0.74927,-2.617 -1.6256,-8.386 1.4322,-8.674 -1.4977,3.208 0.66008,5.84 -1.4322,8.674 z m -105.31,8.673 c 0.88011,-0.39999 0.52226,-5.624 2.15,-2.891 -2.027,2.892 -1.6495,6.895 -3.5822,2.891 -0.92282,1.704 0.094,1.345 -0.71677,3.614 h 2.1489 c 0.45294,2.635 0.87125,4.505 -0.71649,6.505 -0.5166,-1.802 -0.36186,-3.546 0,-5.782 -4.4991,2.15 -0.8148,-2.268 -2.8657,-4.337 -2.0318,1.957 -0.24663,3.272 -1.4322,5.782 1.9547,0.065 1.441,-1.204 2.8654,0 -1.5442,1.333 0.74631,6.535 -2.1489,6.505 -0.41426,-1.932 2.1194,-4.516 0,-5.782 -1.682,2.116 -1.6492,5.352 -0.71649,7.228 1.3639,-1.354 1.7989,-0.079 3.5811,0 1.7712,-0.84801 -1.7376,-3.003 1.4322,-2.891 0.11902,2.528 -0.18913,4.627 -1.4322,5.782 -0.74524,-4.785 -4.8696,2.64 -7.8798,0.72299 v -5.06 c 0.98624,-0.031 1.573,0.341 2.1487,0.72299 0.2321,-1.442 2.3126,-7.128 -0.71649,-7.228 -0.12305,2.045 0.61655,4.958 -1.4322,5.06 1.4333,-5.476 -0.88332,-13.599 5.0152,-15.901 -0.1209,-0.842 -1.1329,-0.785 -2.1498,-0.723 0.65524,-1.267 0.24689,-3.606 1.4333,-4.337 0.31728,1.366 -0.97441,4.356 1.4322,3.614 0.57706,-4.236 1.0953,-8.531 3.5811,-10.842 -0.62032,4.444 -3.5612,10.365 -2.8654,13.732 3.4395,-0.768 0.0368,-5.636 2.8654,-5.782 0.18161,3.029 -2.7515,8.305 0.001,9.397 z m 107.46,-9.396 c 0.43626,-1.728 -0.89893,-5.243 0.71675,-5.782 0.64609,1.595 3.0846,5.884 -0.71675,5.782 z m -50.864,15.901 c 1.9566,1.996 -1.0496,0.679 -1.4324,2.168 0.36591,0.858 6.2268,-0.16301 4.2979,2.169 0.2845,-1.402 -3.263,-1.056 -2.1489,0.72301 11.629,0.597 24.338,-6.185 35.104,-11.564 10.606,-5.299 19.932,-10.733 31.522,-12.287 22.553,-3.024 35.767,4.902 54.447,13.01 27.736,12.038 55.362,23.822 90.268,26.743 -50.174,-1.571 -81.283,-25.614 -121.07,-36.862 -26.298,-7.434 -43.398,6.841 -63.043,15.179 -14.375,6.101 -31.015,11.114 -49.433,12.287 -59.301,3.776 -118.57,6.607 -170.5,7.95 69.22,-5.067 133.11,-3.567 195.58,-13.732 -9.0218,-1.452 -18.943,1.33 -26.506,0.72299 4.0838,-1.661 11.547,0.086 14.328,-2.891 -1.6732,-1.442 -4.0362,1.349 -5.7311,-0.72301 1.2331,0.038 1.8378,-0.55699 2.15,-1.446 -2.7843,-0.34799 -10.768,0.778 -10.03,-0.72299 4.372,-0.366 9.2249,0.86099 10.03,-1.445 -1.8456,-1.852 -5.1761,1.538 -6.4476,-1.445 2.1003,-1.073 2.6613,0.817 3.5811,-1.445 -2.5396,0.483 -6.8541,-0.782 -2.8657,-2.892 -2.4987,-1.04 -7.1523,0.658 -9.313,-0.72299 2.2392,-1.557 6.194,-0.268 7.1644,-1.445 0.23668,-2.319 -7.1249,-0.322 -6.4479,-2.169 2.6744,-0.706 4.2038,0.808 4.2989,-1.445 -0.0972,-2.07 -4.9174,0.625 -5.0154,-1.445 1.3489,-1.821 3.723,1.518 4.2987,-1.445 0.34709,-2.277 -3.2837,-0.542 -3.5822,-2.169 1.2699,-0.164 3.5881,0.729 2.8665,-1.445 -0.0406,-1.702 -7.4011,0.315 -4.2987,-2.168 1.7495,2.651 4.4465,-1.999 5.7311,0 -1.2312,3.25 0.43201,2.096 2.1489,2.891 1.1141,2.569 -2.4324,0.437 -2.1489,2.168 3.1231,-0.408 5.2245,3.82 2.8665,6.506 3.8627,0.086 2.3123,0.752 2.8654,3.613 0.52925,-1.152 3.507,0.16501 2.8665,-2.168 -0.39734,0.002 -0.81375,-0.586 0,-0.723 2.5017,4.941 10.034,4.81 13.61,8.67 z m -53.014,15.179 c 24.929,-1.106 49.675,-2.983 69.491,-10.119 24.8,-8.931 43.487,-25.286 71.64,-20.961 2.495,-0.348 2.5028,1.812 3.5822,2.892 1.9882,-3.389 14.599,2.141 15.044,5.06 3.5346,-1.808 8.2814,0.856 10.747,2.891 2.1409,1.768 0.1416,-0.37201 3.5822,1.446 2.7317,1.443 4.5615,2.29 7.8809,3.613 16.125,6.43 37.248,17.417 60.894,20.961 10.627,1.592 24.795,2.182 37.253,3.613 9.9683,1.146 29.133,-1.338 30.088,13.01 -28.286,-1.476 -57.966,0.285 -83.103,0 -6.5092,-0.073 -13.481,0.042 -19.343,-2.168 -102.24,2.209 -228.95,-0.80899 -351.75,-1.445 v -10.119 c 46.893,-4.721 93.372,-6.429 144,-8.674 z m 85.252,-21.684 c -3.6306,-0.92799 -3.4809,-9.48 -2.1487,-13.01 0.93759,3.562 -0.022,8.12 2.1487,13.01 z m 15.044,-7.95 c -0.0556,-0.228 -7.9357,1.291 -7.8811,-1.446 2.2661,1.654 7.9335,-0.799 7.8811,1.446 z m -63.044,3.613 c 14.161,-0.17 28.118,-4.396 40.119,-4.336 -12.286,2.062 -26.631,5.896 -40.119,4.336 z m 53.73,-2.168 c 1.7137,0.44 5.1978,-0.907 5.7311,0.723 -1.4671,1.394 -4.6944,0.489 -5.7311,-0.723 z m 161.19,7.95 c -2.8308,-4.13 -11.192,-2.682 -15.044,-5.782 4.8271,1.643 15.636,1.079 15.044,5.782 z m -354.62,1.447 c -0.27953,1.108 -0.85941,0.105 0,-0.724 29.004,-0.597 60.529,-2.466 88.118,-4.336 -0.77318,7.331 -0.34602,13.565 -1.4333,20.237 -0.86934,-1.291 -0.13083,-4.205 -1.4324,-5.06 -15.051,-1.217 -27.457,0.257 -44.417,-1.445 5.5596,-1.443 15.495,2.391 19.343,-2.168 -0.0594,1.649 0.0715,1.826 1.4322,2.168 6.2803,1.578 18.326,-1.577 24.358,0.72301 0.45589,-3.818 1.6503,-10.131 0.71675,-13.01 -29.891,1.148 -53.403,3.227 -86.684,3.615 z m 313.07,9.395 c 3.9559,-4.206 8.8821,-11.27 13.612,-12.287 -5.4654,3.159 -8.6809,8.588 -13.612,12.287 z m -144.71,-5.059 c -2.7674,2.166 -8.5608,1.692 -11.462,0 0.24959,-3.12 1.9208,-4.807 5.0152,-5.06 0.36374,1.801 -0.0226,4.36 2.1489,4.337 2.017,-0.73001 -0.19719,-3.069 0,-4.337 3.0411,0.064 4.5168,1.707 4.2979,5.06 z m 194.14,7.227 c 0.53812,-5.374 -5.8649,-7.558 -5.0154,-10.841 1.4185,3.401 7.3368,6.075 5.0154,10.841 z m 37.253,-7.95 c -10.217,-0.081 -3.269,-3.229 0,0 z m -226.38,-0.723 c 0.26384,2.193 -2.3332,1.5 -3.5822,2.168 -0.43494,-3.295 1.6028,-2.971 3.5822,-2.168 z M 386.5793,146 c 2.2857,-0.688 10.24,0.952 13.611,-0.72301 -1.563,2.774 -10.884,1.527 -13.611,0.72301 z m -2.15,0.723 c -1.7978,-0.59599 -6.169,1.405 -5.7309,-1.445 3.4156,0.51198 4.7199,-0.60602 5.7309,1.445 z m 47.999,9.396 c 3.908,0.761 -0.20526,-2.444 3.5822,-2.168 0.4183,3.107 -2.3918,4.499 -3.5822,2.168 z m 41.551,7.228 c 2.8249,-1.962 7.1832,-5.935 7.8801,-5.06 -4.7261,6.796 -10.675,12.358 -20.059,14.455 -0.56793,-6.173 -4.4472,-9.005 -9.313,-10.842 6.5081,-0.30199 7.0443,5.421 11.462,7.229 3.4613,-0.55899 6.9285,-3.628 10.03,-5.782 z m -41.551,-3.614 c -5.5517,-0.19 -14.256,-1.024 -16.477,-2.168 5.8013,0.411 11.751,0.672 16.477,2.168 z m 11.463,1.445 c -12.527,-1.517 6.173,-0.51001 7.8798,0.72299 -4.2769,0.47401 -5.607,-0.44699 -7.8798,-0.72299 z"
       id="path94" />
    <g
       fill="#eff0f0"
       id="g108">
      <path
         d="m 241.13,107.69 c -3.5435,0.906 -1.2191,6.083 -2.8654,10.119 0.57599,0.383 1.1638,0.754 2.1489,0.72301 -0.0199,0.703 -0.87633,0.561 -1.4322,0.723 3.2491,1.158 0.39331,-6.635 2.1487,-11.565 z"
         id="path96" />
      <path
         d="m 415.21,112.75 v -2.168 c -2.6959,0.171 -1.6017,4.166 -4.2976,4.336 0.11578,0.848 1.3054,0.61 2.1487,0.724 1.236,-1.239 -1.0526,-2.843 2.149,-2.892 z"
         id="path98" />
      <path
         d="m 229.67,112.03 c -3.4882,4.687 -2.2016,15.852 1.4322,19.515 -0.886,-4.34 -2.7099,-13.673 -1.4322,-19.515 z"
         id="path100" />
      <path
         d="m 145.13,120.7 c -2.8289,0.146 0.57384,5.015 -2.8654,5.782 -0.6958,-3.367 2.2449,-9.288 2.8654,-13.732 -2.4858,2.311 -3.0043,6.605 -3.5811,10.842 -2.4077,0.742 -1.1152,-2.248 -1.4322,-3.614 -1.1866,0.73 -0.77828,3.07 -1.4332,4.337 1.0168,-0.062 2.0288,-0.119 2.1497,0.723 -5.8974,2.303 -3.5811,10.426 -5.0154,15.901 2.0487,-0.102 1.3094,-3.015 1.4324,-5.06 3.029,0.1 0.94861,5.785 0.71649,7.228 -0.57573,-0.382 -1.1627,-0.754 -2.1489,-0.72301 v 5.06 c 3.0102,1.917 7.1346,-5.508 7.8801,-0.72301 1.2428,-1.155 1.5512,-3.254 1.4322,-5.782 -3.1698,-0.112 0.33905,2.043 -1.4322,2.891 -1.7822,-0.079 -2.2174,-1.354 -3.5811,0 -0.93276,-1.876 -0.9666,-5.111 0.71649,-7.228 2.1191,1.267 -0.41426,3.851 0,5.782 2.8953,0.03 0.60474,-5.172 2.1489,-6.505 -1.4244,-1.204 -0.911,0.065 -2.8654,0 1.1853,-2.51 -0.59882,-3.825 1.4322,-5.782 2.0498,2.069 -1.6334,6.487 2.8654,4.337 -0.3616,2.236 -0.51634,3.98 0,5.782 1.588,-2 1.1697,-3.87 0.71677,-6.505 h -2.1489 c 0.80971,-2.27 -0.20606,-1.91 0.71649,-3.614 1.9329,4.004 1.5552,9.9e-4 3.5822,-2.891 -1.6275,-2.733 -1.2696,2.49 -2.1498,2.891 -2.7537,-1.093 0.17946,-6.369 -10e-4,-9.397 z m -7.1644,14.456 c -0.59857,-0.188 -0.72832,-5.987 1.4324,-5.782 0.17542,1.568 0.51338,5.33 -1.4324,5.782 z"
         id="path102" />
      <path
         d="m 188.12,127.93 c -0.81374,0.13699 -0.39732,0.72501 0,0.72301 0.64047,2.333 -2.3362,1.016 -2.8665,2.168 -0.55287,-2.861 0.99832,-3.527 -2.8654,-3.613 2.358,-2.686 0.25764,-6.914 -2.8665,-6.506 -0.28345,-1.731 3.263,0.40099 2.1489,-2.168 -1.7167,-0.79501 -3.3799,0.35899 -2.1489,-2.891 -1.2847,-1.999 -3.9825,2.651 -5.7311,0 -3.1024,2.483 4.2581,0.466 4.299,2.168 0.72241,2.174 -1.5958,1.281 -2.8665,1.445 0.2982,1.627 3.929,-0.108 3.5822,2.169 -0.57599,2.963 -2.9498,-0.376 -4.299,1.445 0.0983,2.07 4.9182,-0.625 5.0155,1.445 -0.0951,2.253 -1.6245,0.739 -4.2987,1.445 -0.677,1.847 6.6846,-0.15 6.4476,2.169 -0.97037,1.178 -4.9252,-0.111 -7.1644,1.445 2.1618,1.381 6.8154,-0.317 9.3133,0.72301 -3.9886,2.109 0.32616,3.375 2.8654,2.892 -0.92093,2.263 -1.4808,0.37199 -3.5811,1.445 1.2718,2.983 4.602,-0.40599 6.4476,1.445 -0.80487,2.307 -5.6578,1.079 -10.03,1.445 -0.73852,1.501 7.2466,0.375 10.03,0.72301 -0.31218,0.89 -0.91692,1.484 -2.1497,1.446 1.6949,2.071 4.0588,-0.72 5.7308,0.72299 -2.7803,2.977 -10.244,1.229 -14.327,2.891 7.5636,0.607 17.485,-2.175 26.506,-0.72301 -62.464,10.165 -126.36,8.665 -195.58,13.732 51.935,-1.343 111.2,-4.174 170.5,-7.95 18.417,-1.173 35.057,-6.187 49.432,-12.287 19.644,-8.338 36.744,-22.612 63.044,-15.179 39.789,11.248 70.899,35.291 121.07,36.862 -34.906,-2.921 -62.531,-14.705 -90.267,-26.743 -18.679,-8.107 -31.893,-16.034 -54.447,-13.01 -11.589,1.554 -20.916,6.988 -31.522,12.287 -10.766,5.38 -23.475,12.161 -35.104,11.564 -1.1141,-1.778 2.4334,-2.125 2.1489,-0.72299 1.9289,-2.332 -3.932,-1.311 -4.2976,-2.169 0.38336,-1.489 3.3888,-0.172 1.4322,-2.168 -3.5752,-3.857 -11.107,-3.726 -13.61,-8.67 z m 2.1489,7.95 c 0.48384,-1.68 1.2895,-3.035 3.5822,-2.891 -0.2904,1.876 -2.2311,2.087 -3.5822,2.891 z"
         id="path104" />
      <path
         d="m 4.7158,160.46 v 10.119 c 122.8,0.63699 249.52,3.654 351.75,1.445 5.863,2.21 12.834,2.095 19.343,2.168 25.136,0.285 54.816,-1.476 83.103,0 -0.95642,-14.348 -20.12,-11.864 -30.088,-13.01 -12.457,-1.432 -26.625,-2.021 -37.253,-3.613 -23.647,-3.544 -44.769,-14.531 -60.894,-20.961 -3.3195,-1.323 -5.1482,-2.17 -7.8809,-3.613 -3.4403,-1.818 -1.441,0.321 -3.5822,-1.446 -2.4649,-2.034 -7.2108,-4.698 -10.746,-2.891 -0.44513,-2.919 -13.056,-8.448 -15.044,-5.06 -1.0794,-1.079 -1.0875,-3.239 -3.5822,-2.892 -28.153,-4.325 -46.84,12.03 -71.64,20.961 -19.816,7.136 -44.562,9.013 -69.491,10.119 -50.624,2.246 -97.102,3.954 -144,8.674 z"
         id="path106" />
    </g>
    <path
       d="m 193.85,132.99 c -2.2927,-0.145 -3.0983,1.211 -3.5822,2.891 1.351,-0.80501 3.2918,-1.016 3.5822,-2.891 z"
       id="path110" />
    <g
       fill="#eff0f0"
       id="g126">
      <path
         d="m 385.84,125.76 c 3.8527,3.101 12.213,1.652 15.044,5.782 0.59183,-4.703 -10.217,-4.139 -15.044,-5.782 z"
         id="path112" />
      <path
         d="m 132.95,129.38 c 0.93356,2.879 -0.26086,9.191 -0.71675,13.01 -6.0315,-2.3 -18.077,0.855 -24.358,-0.72301 -1.3607,-0.342 -1.4915,-0.519 -1.4322,-2.168 -3.8476,4.559 -13.782,0.72501 -19.343,2.168 16.959,1.702 29.366,0.229 44.417,1.445 1.3016,0.85399 0.5631,3.769 1.4324,5.06 1.0883,-6.672 0.66008,-12.906 1.4333,-20.237 -27.589,1.87 -59.114,3.739 -88.118,4.336 -0.85941,0.829 -0.27953,1.832 0,0.724 33.281,-0.38802 56.793,-2.467 86.684,-3.615 z"
         id="path114" />
      <path
         d="m 372.95,130.1 c -4.7291,1.018 -9.6561,8.081 -13.612,12.287 4.9311,-3.699 8.1466,-9.128 13.612,-12.287 z"
         id="path116" />
      <path
         d="m 403.75,133.71 c -0.84946,3.283 5.5536,5.467 5.0154,10.841 2.3203,-4.766 -3.598,-7.44 -5.0154,-10.841 z"
         id="path118" />
      <path
         d="m 446.02,136.6 c -3.269,-3.229 -10.217,-0.081 0,0 z"
         id="path120" />
      <path
         d="m 463.93,169.13 c -4.4177,-1.808 -4.954,-7.53 -11.462,-7.229 4.8658,1.837 8.7451,4.669 9.313,10.842 9.3837,-2.097 15.334,-7.659 20.059,-14.455 -0.69684,-0.875 -5.0562,3.098 -7.8801,5.06 -3.1013,2.154 -6.5685,5.223 -10.03,5.782 z"
         id="path122" />
      <path
         d="m 415.93,157.56 c 2.2212,1.144 10.926,1.978 16.477,2.168 -4.7261,-1.496 -10.676,-1.757 -16.477,-2.168 z"
         id="path124" />
    </g>
    <path
       d="m 290.56,98.297 c 4.0053,8.005 8.5272,15.489 17.194,18.792 4.2272,-5.117 -2.387,-9.513 -6.4479,-10.842 0.21118,-6.283 -5.3692,-11.798 -10.746,-7.95 z m 4.2987,5.783 c -2.6949,-2.03 0.63428,-3.357 1.4324,-5.782 -0.22217,2.184 0.79575,5.62 -1.4324,5.782 z"
       id="path128" />
  </g>
</svg>
