<?xml version="1.0" standalone="no"?>
<!DOCTYPE svg PUBLIC "-//W3C//DTD SVG 20010904//EN"
 "http://www.w3.org/TR/2001/REC-SVG-20010904/DTD/svg10.dtd">
<svg version="1.0" xmlns="http://www.w3.org/2000/svg"
 width="66.000000pt" height="62.000000pt" viewBox="0 0 66.000000 62.000000"
 preserveAspectRatio="xMidYMid meet">

<g transform="translate(0.000000,62.000000) scale(0.100000,-0.100000)"
fill="#000000" stroke="none">
<path d="M246 594 c-3 -8 -10 -12 -16 -9 -16 10 -11 -11 6 -26 14 -11 15 -10
12 7 -2 14 2 18 16 16 17 -3 18 -2 7 12 -17 20 -17 20 -25 0z"/>
<path d="M407 597 c-15 -39 -4 -48 29 -22 14 11 15 14 2 9 -11 -4 -17 1 -20
13 -3 17 -4 17 -11 0z"/>
<path d="M175 478 c-83 -66 -151 -123 -153 -127 -1 -3 46 -42 105 -86 60 -43
134 -98 165 -121 l57 -43 148 120 c81 66 149 124 151 128 1 5 -32 35 -75 67
-43 32 -84 65 -93 72 -13 12 -12 13 5 7 16 -5 17 -4 8 6 -7 7 -9 18 -5 24 4 6
-1 3 -10 -8 -17 -18 -19 -17 -75 25 -32 25 -63 47 -68 51 -6 3 -78 -48 -160
-115z m332 -34 l123 -92 -130 -106 c-71 -58 -136 -109 -144 -112 -15 -6 -301
199 -301 216 0 6 61 59 135 119 l134 109 31 -21 c16 -12 85 -62 152 -113z"/>
<path d="M205 430 c5 -8 -44 -55 -65 -63 -8 -3 1 -5 20 -6 35 0 90 17 60 18
-10 1 -7 6 8 17 27 19 24 37 -6 39 -11 1 -19 -1 -17 -5z"/>
<path d="M267 400 c3 -11 12 -20 21 -20 13 0 12 3 -3 20 -10 11 -19 20 -21 20
-1 0 0 -9 3 -20z"/>
<path d="M364 369 c15 -12 25 -27 23 -33 -3 -8 5 -11 25 -8 23 4 29 1 23 -8
-6 -9 0 -10 25 -5 22 5 30 4 26 -3 -11 -18 13 -24 30 -8 8 9 11 16 6 16 -5 0
-8 10 -8 23 1 16 -5 22 -19 22 -13 0 -19 -6 -18 -18 1 -12 -4 -17 -14 -13 -8
3 -21 6 -28 6 -7 0 -27 11 -43 25 -17 14 -35 25 -42 25 -7 0 -1 -10 14 -21z"/>
<path d="M180 555 c-6 -8 -8 -20 -4 -27 6 -10 5 -10 -7 -2 -14 12 -32 2 -38
-21 -1 -5 -9 -9 -17 -9 -11 2 -12 -1 -3 -12 14 -17 3 -35 -16 -28 -8 4 -12 11
-8 18 4 6 -1 5 -10 -3 -12 -10 -14 -17 -7 -26 7 -9 6 -16 -5 -25 -13 -11 -19
-10 -35 5 -11 10 -20 14 -20 8 0 -5 8 -18 19 -27 18 -16 21 -15 57 18 22 20
42 36 46 36 4 0 5 7 2 15 -4 9 0 15 10 15 10 0 13 5 9 18 -6 15 -5 15 10 3 11
-9 17 -10 17 -2 0 6 6 11 13 11 23 0 38 22 26 37 -15 17 -24 16 -39 -2z m35
-4 c7 -12 -12 -24 -25 -16 -11 7 -4 25 10 25 5 0 11 -4 15 -9z"/>
<path d="M430 550 c-13 -8 -12 -10 3 -10 9 0 17 -6 17 -12 0 -14 20 11 20 25
0 10 -22 9 -40 -3z"/>
<path d="M514 499 c-3 -6 -2 -15 3 -20 5 -5 9 -1 9 11 0 23 -2 24 -12 9z"/>
<path d="M551 477 c-15 -15 -14 -24 5 -31 8 -3 12 -2 9 3 -3 6 2 14 11 19 14
8 14 10 1 15 -8 3 -20 0 -26 -6z"/>
<path d="M598 442 c-4 -15 -1 -18 14 -14 11 2 16 8 11 11 -4 3 -11 10 -14 14
-4 4 -9 -1 -11 -11z"/>
<path d="M90 90 c0 -8 5 -22 10 -30 8 -12 10 -12 10 -1 0 11 3 11 15 1 11 -9
15 -9 15 -1 0 7 5 9 13 4 6 -4 30 -8 52 -8 33 0 40 -3 40 -20 0 -13 8 -21 23
-23 12 -2 22 1 22 7 0 6 -8 11 -17 11 -14 0 -15 2 -4 9 9 6 10 11 2 15 -6 4
-11 13 -11 19 0 7 4 6 10 -3 8 -13 10 -13 10 -1 0 11 4 9 15 -5 11 -14 14 -15
15 -4 0 13 1 13 10 0 8 -12 10 -12 16 3 6 17 7 17 20 0 10 -14 15 -15 25 -6 8
8 18 9 31 2 14 -8 18 -6 18 9 0 18 -9 19 -140 18 -87 -1 -140 3 -140 9 0 7 -3
7 -8 0 -4 -5 -14 -10 -22 -10 -8 0 -18 5 -22 10 -5 6 -8 4 -8 -5z"/>
<path d="M440 70 c0 -9 6 -17 14 -17 8 0 14 8 13 17 -1 22 -27 22 -27 0z"/>
<path d="M480 70 c0 -11 7 -20 15 -20 8 0 15 9 15 20 0 11 -7 20 -15 20 -8 0
-15 -9 -15 -20z"/>
<path d="M520 72 c0 -10 7 -19 15 -19 8 0 15 9 15 19 0 10 -7 18 -15 18 -8 0
-15 -8 -15 -18z"/>
<path d="M560 69 c0 -24 23 -21 28 4 2 10 -3 17 -12 17 -10 0 -16 -9 -16 -21z"/>
<path d="M300 28 c0 -11 8 -18 20 -18 12 0 20 7 20 18 0 14 -2 15 -10 2 -9
-13 -11 -13 -20 0 -8 13 -10 12 -10 -2z"/>
<path d="M351 24 c0 -11 3 -14 6 -6 3 7 2 16 -1 19 -3 4 -6 -2 -5 -13z"/>
<path d="M375 29 c-9 -14 0 -22 18 -17 13 2 13 5 2 15 -10 9 -16 9 -20 2z"/>
<path d="M420 25 c0 -8 7 -15 15 -15 8 0 15 7 15 15 0 8 -7 15 -15 15 -8 0
-15 -7 -15 -15z"/>
</g>
</svg>
